<?xml version="1.0" standalone="no"?>
<!DOCTYPE svg PUBLIC "-//W3C//DTD SVG 20010904//EN"
 "http://www.w3.org/TR/2001/REC-SVG-20010904/DTD/svg10.dtd">
<svg version="1.0" xmlns="http://www.w3.org/2000/svg"
 width="400.000000pt" height="400.000000pt" viewBox="0 0 400.000000 400.000000"
 preserveAspectRatio="xMidYMid meet">
<metadata>
Created by potrace 1.14, written by Peter Selinger 2001-2017
</metadata>
<g transform="translate(0.000000,400.000000) scale(0.100000,-0.100000)"
fill="#000000" stroke="none">
<path d="M1760 3429 c-330 -56 -593 -192 -830 -429 -229 -228 -360 -483 -425
-825 -13 -69 -6 -420 10 -503 80 -415 349 -800 707 -1009 442 -259 957 -282
1413 -64 110 53 271 157 342 223 83 77 98 92 157 162 181 213 310 504 341 768
9 76 10 308 1 383 -65 550 -464 1042 -996 1228 -215 75 -507 102 -720 66z"/>
</g>
</svg>
